<mxfile host="drawio-plugin" modified="2021-05-31T21:22:16.542Z" agent="5.0 (Macintosh; Intel Mac OS X 10_16_0) AppleWebKit/537.36 (KHTML, like Gecko) Chrome/84.0.4147.105 Safari/537.36" etag="yuY6HGOD-AOzRkh7tiA-" version="14.6.6" type="embed"><diagram id="R2lEEEUBdFMjLlhIrx00" name="Page-1"><mxGraphModel dx="1930" dy="614" grid="0" gridSize="10" guides="1" tooltips="1" connect="1" arrows="1" fold="1" page="0" pageScale="1" pageWidth="850" pageHeight="1100" math="0" shadow="0" extFonts="Permanent Marker^https://fonts.googleapis.com/css?family=Permanent+Marker"><root><mxCell id="0"/><mxCell id="1" parent="0"/><mxCell id="tuVhFSCb5TEmY5IGxSXc-1" value="Tbl_Author" style="rounded=0;whiteSpace=wrap;html=1;strokeColor=#0000FF;" parent="1" vertex="1"><mxGeometry x="120" y="480" width="100" height="40" as="geometry"/></mxCell><mxCell id="tuVhFSCb5TEmY5IGxSXc-2" value="Tbl_Comment" style="rounded=0;whiteSpace=wrap;html=1;strokeColor=#0000FF;" parent="1" vertex="1"><mxGeometry x="110" y="320" width="100" height="40" as="geometry"/></mxCell><mxCell id="tuVhFSCb5TEmY5IGxSXc-3" value="Tbl_Event" style="rounded=0;whiteSpace=wrap;html=1;strokeColor=#0000FF;" parent="1" vertex="1"><mxGeometry x="375" y="110" width="100" height="40" as="geometry"/></mxCell><mxCell id="tuVhFSCb5TEmY5IGxSXc-4" value="Tbl_Note" style="rounded=0;whiteSpace=wrap;html=1;strokeColor=#0000FF;" parent="1" vertex="1"><mxGeometry x="390" y="540" width="100" height="40" as="geometry"/></mxCell><mxCell id="tuVhFSCb5TEmY5IGxSXc-5" value="Tbl_Story" style="rounded=0;whiteSpace=wrap;html=1;strokeColor=#0000FF;" parent="1" vertex="1"><mxGeometry x="700" y="320" width="100" height="40" as="geometry"/></mxCell><mxCell id="tuVhFSCb5TEmY5IGxSXc-6" value="Tbl_TimeLine" style="rounded=0;whiteSpace=wrap;html=1;strokeColor=#0000FF;" parent="1" vertex="1"><mxGeometry x="700" y="470" width="100" height="40" as="geometry"/></mxCell><mxCell id="tuVhFSCb5TEmY5IGxSXc-8" value="Tbl_EventCard" style="rounded=0;whiteSpace=wrap;html=1;strokeColor=#0000FF;" parent="1" vertex="1"><mxGeometry x="380" y="320" width="100" height="40" as="geometry"/></mxCell><mxCell id="Mugt63T2RusStyIzecl9-36" style="edgeStyle=none;rounded=0;orthogonalLoop=1;jettySize=auto;html=1;exitX=0.5;exitY=1;exitDx=0;exitDy=0;entryX=0;entryY=0;entryDx=0;entryDy=0;endArrow=none;endFill=0;" parent="1" source="Mugt63T2RusStyIzecl9-4" target="tuVhFSCb5TEmY5IGxSXc-8" edge="1"><mxGeometry relative="1" as="geometry"/></mxCell><mxCell id="Mugt63T2RusStyIzecl9-4" value="fld_AuthorID&lt;br&gt;&lt;b&gt;&lt;i&gt;&lt;u&gt;FK&lt;/u&gt;&lt;/i&gt;&lt;/b&gt;" style="ellipse;whiteSpace=wrap;html=1;align=center;strokeColor=#FF8000;" parent="1" vertex="1"><mxGeometry x="300" y="260" width="100" height="40" as="geometry"/></mxCell><mxCell id="Mugt63T2RusStyIzecl9-73" style="edgeStyle=none;rounded=0;orthogonalLoop=1;jettySize=auto;html=1;exitX=0.5;exitY=1;exitDx=0;exitDy=0;entryX=0.67;entryY=0.05;entryDx=0;entryDy=0;entryPerimeter=0;endArrow=none;endFill=0;" parent="1" source="Mugt63T2RusStyIzecl9-5" target="tuVhFSCb5TEmY5IGxSXc-3" edge="1"><mxGeometry relative="1" as="geometry"/></mxCell><mxCell id="Mugt63T2RusStyIzecl9-5" value="fld_Role" style="ellipse;whiteSpace=wrap;html=1;align=center;strokeColor=#FF8000;" parent="1" vertex="1"><mxGeometry x="410" y="50" width="100" height="40" as="geometry"/></mxCell><mxCell id="Mugt63T2RusStyIzecl9-76" style="edgeStyle=none;rounded=0;orthogonalLoop=1;jettySize=auto;html=1;exitX=0;exitY=1;exitDx=0;exitDy=0;entryX=1;entryY=0.75;entryDx=0;entryDy=0;endArrow=none;endFill=0;" parent="1" source="Mugt63T2RusStyIzecl9-6" target="tuVhFSCb5TEmY5IGxSXc-3" edge="1"><mxGeometry relative="1" as="geometry"/></mxCell><mxCell id="Mugt63T2RusStyIzecl9-6" value="fld_Time" style="ellipse;whiteSpace=wrap;html=1;align=center;strokeColor=#FF8000;" parent="1" vertex="1"><mxGeometry x="530" y="100" width="100" height="40" as="geometry"/></mxCell><mxCell id="Mugt63T2RusStyIzecl9-74" style="edgeStyle=none;rounded=0;orthogonalLoop=1;jettySize=auto;html=1;exitX=0.5;exitY=1;exitDx=0;exitDy=0;entryX=1;entryY=0.25;entryDx=0;entryDy=0;endArrow=none;endFill=0;" parent="1" source="Mugt63T2RusStyIzecl9-7" target="tuVhFSCb5TEmY5IGxSXc-3" edge="1"><mxGeometry relative="1" as="geometry"/></mxCell><mxCell id="Mugt63T2RusStyIzecl9-7" value="fld_Chapter" style="ellipse;whiteSpace=wrap;html=1;align=center;strokeColor=#FF8000;" parent="1" vertex="1"><mxGeometry x="460" width="100" height="40" as="geometry"/></mxCell><mxCell id="Mugt63T2RusStyIzecl9-72" style="edgeStyle=none;rounded=0;orthogonalLoop=1;jettySize=auto;html=1;exitX=0.5;exitY=1;exitDx=0;exitDy=0;endArrow=none;endFill=0;" parent="1" source="Mugt63T2RusStyIzecl9-8" target="tuVhFSCb5TEmY5IGxSXc-3" edge="1"><mxGeometry relative="1" as="geometry"/></mxCell><mxCell id="Mugt63T2RusStyIzecl9-8" value="fld_EventDate" style="ellipse;whiteSpace=wrap;html=1;align=center;strokeColor=#FF8000;" parent="1" vertex="1"><mxGeometry x="350" width="100" height="40" as="geometry"/></mxCell><mxCell id="Mugt63T2RusStyIzecl9-71" style="edgeStyle=none;rounded=0;orthogonalLoop=1;jettySize=auto;html=1;exitX=1;exitY=1;exitDx=0;exitDy=0;endArrow=none;endFill=0;" parent="1" source="Mugt63T2RusStyIzecl9-9" target="tuVhFSCb5TEmY5IGxSXc-3" edge="1"><mxGeometry relative="1" as="geometry"/></mxCell><mxCell id="Mugt63T2RusStyIzecl9-9" value="fld_EventName" style="ellipse;whiteSpace=wrap;html=1;align=center;strokeColor=#FF8000;" parent="1" vertex="1"><mxGeometry x="250" y="20" width="100" height="40" as="geometry"/></mxCell><mxCell id="Mugt63T2RusStyIzecl9-39" style="edgeStyle=none;rounded=0;orthogonalLoop=1;jettySize=auto;html=1;exitX=1;exitY=1;exitDx=0;exitDy=0;endArrow=none;endFill=0;" parent="1" source="Mugt63T2RusStyIzecl9-10" target="tuVhFSCb5TEmY5IGxSXc-8" edge="1"><mxGeometry relative="1" as="geometry"/></mxCell><mxCell id="Mugt63T2RusStyIzecl9-10" value="fld_EventID&amp;nbsp;&lt;br&gt;&lt;b&gt;&lt;i&gt;&lt;u&gt;FK&lt;/u&gt;&lt;/i&gt;&lt;/b&gt;" style="ellipse;whiteSpace=wrap;html=1;align=center;strokeColor=#FF8000;" parent="1" vertex="1"><mxGeometry x="280" y="210" width="100" height="40" as="geometry"/></mxCell><mxCell id="Mugt63T2RusStyIzecl9-70" style="edgeStyle=none;rounded=0;orthogonalLoop=1;jettySize=auto;html=1;exitX=1;exitY=0.5;exitDx=0;exitDy=0;entryX=0;entryY=0.5;entryDx=0;entryDy=0;endArrow=none;endFill=0;" parent="1" source="Mugt63T2RusStyIzecl9-11" target="tuVhFSCb5TEmY5IGxSXc-3" edge="1"><mxGeometry relative="1" as="geometry"/></mxCell><mxCell id="Mugt63T2RusStyIzecl9-11" value="&lt;u&gt;fld_EventID&lt;/u&gt;" style="ellipse;whiteSpace=wrap;html=1;align=center;strokeColor=#FF8000;" parent="1" vertex="1"><mxGeometry x="230" y="90" width="100" height="40" as="geometry"/></mxCell><mxCell id="Mugt63T2RusStyIzecl9-75" style="edgeStyle=none;rounded=0;orthogonalLoop=1;jettySize=auto;html=1;exitX=0;exitY=1;exitDx=0;exitDy=0;entryX=1;entryY=0.5;entryDx=0;entryDy=0;endArrow=none;endFill=0;" parent="1" source="Mugt63T2RusStyIzecl9-12" target="tuVhFSCb5TEmY5IGxSXc-3" edge="1"><mxGeometry relative="1" as="geometry"/></mxCell><mxCell id="Mugt63T2RusStyIzecl9-12" value="fld_QuickNote" style="ellipse;whiteSpace=wrap;html=1;align=center;strokeColor=#FF8000;" parent="1" vertex="1"><mxGeometry x="560" y="40" width="100" height="40" as="geometry"/></mxCell><mxCell id="Mugt63T2RusStyIzecl9-37" style="edgeStyle=none;rounded=0;orthogonalLoop=1;jettySize=auto;html=1;exitX=0;exitY=1;exitDx=0;exitDy=0;entryX=1;entryY=0;entryDx=0;entryDy=0;endArrow=none;endFill=0;" parent="1" source="Mugt63T2RusStyIzecl9-15" target="tuVhFSCb5TEmY5IGxSXc-8" edge="1"><mxGeometry relative="1" as="geometry"/></mxCell><mxCell id="Mugt63T2RusStyIzecl9-15" value="fld_CommentID &lt;u&gt;&lt;i&gt;&lt;b&gt;FK&lt;/b&gt;&lt;/i&gt;&lt;/u&gt;" style="ellipse;whiteSpace=wrap;html=1;align=center;strokeColor=#FF8000;" parent="1" vertex="1"><mxGeometry x="480" y="280" width="100" height="40" as="geometry"/></mxCell><mxCell id="Mugt63T2RusStyIzecl9-40" style="edgeStyle=none;rounded=0;orthogonalLoop=1;jettySize=auto;html=1;exitX=0.5;exitY=0;exitDx=0;exitDy=0;endArrow=none;endFill=0;" parent="1" source="Mugt63T2RusStyIzecl9-16" target="tuVhFSCb5TEmY5IGxSXc-8" edge="1"><mxGeometry relative="1" as="geometry"/></mxCell><mxCell id="Mugt63T2RusStyIzecl9-16" value="fld_NoteID&lt;br&gt;&lt;b&gt;&lt;i&gt;&lt;u&gt;FK&lt;/u&gt;&lt;/i&gt;&lt;/b&gt;" style="ellipse;whiteSpace=wrap;html=1;align=center;strokeColor=#FF8000;" parent="1" vertex="1"><mxGeometry x="500" y="360" width="100" height="40" as="geometry"/></mxCell><mxCell id="Mugt63T2RusStyIzecl9-20" value="" style="fontSize=12;html=1;endArrow=ERmandOne;startArrow=none;exitX=0.5;exitY=0;exitDx=0;exitDy=0;entryX=0.5;entryY=1;entryDx=0;entryDy=0;" parent="1" source="Mugt63T2RusStyIzecl9-97" target="tuVhFSCb5TEmY5IGxSXc-3" edge="1"><mxGeometry width="100" height="100" relative="1" as="geometry"><mxPoint x="275" y="230" as="sourcePoint"/><mxPoint x="375" y="130" as="targetPoint"/></mxGeometry></mxCell><mxCell id="Mugt63T2RusStyIzecl9-41" style="edgeStyle=none;rounded=0;orthogonalLoop=1;jettySize=auto;html=1;exitX=1;exitY=1;exitDx=0;exitDy=0;entryX=0;entryY=0;entryDx=0;entryDy=0;endArrow=none;endFill=0;" parent="1" source="Mugt63T2RusStyIzecl9-21" target="tuVhFSCb5TEmY5IGxSXc-2" edge="1"><mxGeometry relative="1" as="geometry"/></mxCell><mxCell id="Mugt63T2RusStyIzecl9-21" value="fld_CommentDate" style="ellipse;whiteSpace=wrap;html=1;align=center;strokeColor=#FF8000;" parent="1" vertex="1"><mxGeometry y="260" width="100" height="40" as="geometry"/></mxCell><mxCell id="Mugt63T2RusStyIzecl9-42" style="edgeStyle=none;rounded=0;orthogonalLoop=1;jettySize=auto;html=1;exitX=0.5;exitY=1;exitDx=0;exitDy=0;entryX=0.5;entryY=0;entryDx=0;entryDy=0;endArrow=none;endFill=0;" parent="1" source="Mugt63T2RusStyIzecl9-22" target="tuVhFSCb5TEmY5IGxSXc-2" edge="1"><mxGeometry relative="1" as="geometry"/></mxCell><mxCell id="Mugt63T2RusStyIzecl9-22" value="fld_CommentText" style="ellipse;whiteSpace=wrap;html=1;align=center;strokeColor=#FF8000;" parent="1" vertex="1"><mxGeometry x="110" y="260" width="100" height="40" as="geometry"/></mxCell><mxCell id="Mugt63T2RusStyIzecl9-43" style="edgeStyle=none;rounded=0;orthogonalLoop=1;jettySize=auto;html=1;exitX=1;exitY=0.5;exitDx=0;exitDy=0;entryX=0;entryY=0.75;entryDx=0;entryDy=0;endArrow=none;endFill=0;" parent="1" source="Mugt63T2RusStyIzecl9-23" target="tuVhFSCb5TEmY5IGxSXc-2" edge="1"><mxGeometry relative="1" as="geometry"/></mxCell><mxCell id="Mugt63T2RusStyIzecl9-23" value="fld_AuthorID&lt;br&gt;&lt;b&gt;&lt;i&gt;&lt;u&gt;FK&lt;/u&gt;&lt;/i&gt;&lt;/b&gt;" style="ellipse;whiteSpace=wrap;html=1;align=center;strokeColor=#FF8000;" parent="1" vertex="1"><mxGeometry y="330" width="100" height="40" as="geometry"/></mxCell><mxCell id="Mugt63T2RusStyIzecl9-52" style="edgeStyle=none;rounded=0;orthogonalLoop=1;jettySize=auto;html=1;exitX=0;exitY=0.5;exitDx=0;exitDy=0;entryX=1;entryY=0.75;entryDx=0;entryDy=0;endArrow=none;endFill=0;" parent="1" source="Mugt63T2RusStyIzecl9-24" target="tuVhFSCb5TEmY5IGxSXc-4" edge="1"><mxGeometry relative="1" as="geometry"/></mxCell><mxCell id="Mugt63T2RusStyIzecl9-24" value="fld_NoteText" style="ellipse;whiteSpace=wrap;html=1;align=center;strokeColor=#FF8000;" parent="1" vertex="1"><mxGeometry x="560" y="600" width="100" height="40" as="geometry"/></mxCell><mxCell id="Mugt63T2RusStyIzecl9-48" style="edgeStyle=none;rounded=0;orthogonalLoop=1;jettySize=auto;html=1;exitX=1;exitY=0;exitDx=0;exitDy=0;entryX=0.1;entryY=1.05;entryDx=0;entryDy=0;entryPerimeter=0;endArrow=none;endFill=0;" parent="1" source="Mugt63T2RusStyIzecl9-25" target="tuVhFSCb5TEmY5IGxSXc-4" edge="1"><mxGeometry relative="1" as="geometry"/></mxCell><mxCell id="Mugt63T2RusStyIzecl9-25" value="&lt;u&gt;fld_NoteID&lt;/u&gt;" style="ellipse;whiteSpace=wrap;html=1;align=center;strokeColor=#FF8000;" parent="1" vertex="1"><mxGeometry x="310" y="590" width="100" height="40" as="geometry"/></mxCell><mxCell id="Mugt63T2RusStyIzecl9-45" style="edgeStyle=none;rounded=0;orthogonalLoop=1;jettySize=auto;html=1;exitX=1;exitY=0.5;exitDx=0;exitDy=0;entryX=0.59;entryY=0.975;entryDx=0;entryDy=0;endArrow=none;endFill=0;entryPerimeter=0;" parent="1" source="Mugt63T2RusStyIzecl9-26" target="tuVhFSCb5TEmY5IGxSXc-1" edge="1"><mxGeometry relative="1" as="geometry"/></mxCell><mxCell id="Mugt63T2RusStyIzecl9-26" value="fld_AuthorName" style="ellipse;whiteSpace=wrap;html=1;align=center;strokeColor=#FF8000;" parent="1" vertex="1"><mxGeometry x="175" y="610" width="100" height="40" as="geometry"/></mxCell><mxCell id="Mugt63T2RusStyIzecl9-46" style="edgeStyle=none;rounded=0;orthogonalLoop=1;jettySize=auto;html=1;exitX=1;exitY=0.5;exitDx=0;exitDy=0;entryX=0.09;entryY=1.075;entryDx=0;entryDy=0;entryPerimeter=0;endArrow=none;endFill=0;" parent="1" source="Mugt63T2RusStyIzecl9-27" target="tuVhFSCb5TEmY5IGxSXc-1" edge="1"><mxGeometry relative="1" as="geometry"/></mxCell><mxCell id="Mugt63T2RusStyIzecl9-27" value="&lt;u&gt;fld_AuthorID&lt;/u&gt;" style="ellipse;whiteSpace=wrap;html=1;align=center;strokeColor=#FF8000;direction=south;" parent="1" vertex="1"><mxGeometry x="48" y="586" width="101" height="61" as="geometry"/></mxCell><mxCell id="Mugt63T2RusStyIzecl9-44" style="edgeStyle=none;rounded=0;orthogonalLoop=1;jettySize=auto;html=1;exitX=0;exitY=0;exitDx=0;exitDy=0;endArrow=none;endFill=0;" parent="1" source="Mugt63T2RusStyIzecl9-28" target="tuVhFSCb5TEmY5IGxSXc-2" edge="1"><mxGeometry relative="1" as="geometry"/></mxCell><mxCell id="Mugt63T2RusStyIzecl9-28" value="&lt;u&gt;fld_CommentID&lt;/u&gt;" style="ellipse;whiteSpace=wrap;html=1;align=center;strokeColor=#FF8000;" parent="1" vertex="1"><mxGeometry x="190" y="370" width="100" height="40" as="geometry"/></mxCell><mxCell id="Mugt63T2RusStyIzecl9-38" style="edgeStyle=none;rounded=0;orthogonalLoop=1;jettySize=auto;html=1;exitX=0;exitY=1;exitDx=0;exitDy=0;entryX=0.75;entryY=0;entryDx=0;entryDy=0;endArrow=none;endFill=0;" parent="1" source="Mugt63T2RusStyIzecl9-29" target="tuVhFSCb5TEmY5IGxSXc-8" edge="1"><mxGeometry relative="1" as="geometry"/></mxCell><mxCell id="Mugt63T2RusStyIzecl9-29" value="&lt;u&gt;fld_EventCardID&lt;/u&gt;" style="ellipse;whiteSpace=wrap;html=1;align=center;strokeColor=#FF8000;" parent="1" vertex="1"><mxGeometry x="470" y="230" width="100" height="40" as="geometry"/></mxCell><mxCell id="Mugt63T2RusStyIzecl9-47" style="edgeStyle=none;rounded=0;orthogonalLoop=1;jettySize=auto;html=1;exitX=1;exitY=0.5;exitDx=0;exitDy=0;entryX=0;entryY=0.5;entryDx=0;entryDy=0;endArrow=none;endFill=0;" parent="1" source="Mugt63T2RusStyIzecl9-30" target="tuVhFSCb5TEmY5IGxSXc-4" edge="1"><mxGeometry relative="1" as="geometry"/></mxCell><mxCell id="Mugt63T2RusStyIzecl9-30" value="fld_Background" style="ellipse;whiteSpace=wrap;html=1;align=center;strokeColor=#FF8000;" parent="1" vertex="1"><mxGeometry x="260" y="540" width="100" height="40" as="geometry"/></mxCell><mxCell id="Mugt63T2RusStyIzecl9-56" style="edgeStyle=none;rounded=0;orthogonalLoop=1;jettySize=auto;html=1;exitX=0;exitY=0;exitDx=0;exitDy=0;entryX=0.75;entryY=1;entryDx=0;entryDy=0;endArrow=none;endFill=0;" parent="1" source="Mugt63T2RusStyIzecl9-31" target="tuVhFSCb5TEmY5IGxSXc-8" edge="1"><mxGeometry relative="1" as="geometry"/></mxCell><mxCell id="Mugt63T2RusStyIzecl9-31" value="Fld_before this happen" style="ellipse;whiteSpace=wrap;html=1;align=center;strokeColor=#FF8000;" parent="1" vertex="1"><mxGeometry x="487" y="412" width="100" height="40" as="geometry"/></mxCell><mxCell id="Mugt63T2RusStyIzecl9-50" style="edgeStyle=none;rounded=0;orthogonalLoop=1;jettySize=auto;html=1;exitX=0.5;exitY=0;exitDx=0;exitDy=0;entryX=0.63;entryY=1.025;entryDx=0;entryDy=0;entryPerimeter=0;endArrow=none;endFill=0;" parent="1" source="Mugt63T2RusStyIzecl9-32" target="tuVhFSCb5TEmY5IGxSXc-4" edge="1"><mxGeometry relative="1" as="geometry"/></mxCell><mxCell id="Mugt63T2RusStyIzecl9-32" value="fld_Role" style="ellipse;whiteSpace=wrap;html=1;align=center;strokeColor=#FF8000;" parent="1" vertex="1"><mxGeometry x="410" y="690" width="100" height="40" as="geometry"/></mxCell><mxCell id="Mugt63T2RusStyIzecl9-53" style="edgeStyle=none;rounded=0;orthogonalLoop=1;jettySize=auto;html=1;exitX=0;exitY=0.5;exitDx=0;exitDy=0;endArrow=none;endFill=0;" parent="1" source="Mugt63T2RusStyIzecl9-33" target="tuVhFSCb5TEmY5IGxSXc-4" edge="1"><mxGeometry relative="1" as="geometry"/></mxCell><mxCell id="Mugt63T2RusStyIzecl9-33" value="Fld_Result" style="ellipse;whiteSpace=wrap;html=1;align=center;strokeColor=#FF8000;" parent="1" vertex="1"><mxGeometry x="540" y="550" width="100" height="40" as="geometry"/></mxCell><mxCell id="Mugt63T2RusStyIzecl9-51" style="edgeStyle=none;rounded=0;orthogonalLoop=1;jettySize=auto;html=1;exitX=0;exitY=0;exitDx=0;exitDy=0;entryX=0.75;entryY=1;entryDx=0;entryDy=0;endArrow=none;endFill=0;" parent="1" source="Mugt63T2RusStyIzecl9-34" target="tuVhFSCb5TEmY5IGxSXc-4" edge="1"><mxGeometry relative="1" as="geometry"/></mxCell><mxCell id="Mugt63T2RusStyIzecl9-34" value="fld_Action" style="ellipse;whiteSpace=wrap;html=1;align=center;strokeColor=#FF8000;" parent="1" vertex="1"><mxGeometry x="470" y="640" width="100" height="40" as="geometry"/></mxCell><mxCell id="Mugt63T2RusStyIzecl9-49" style="edgeStyle=none;rounded=0;orthogonalLoop=1;jettySize=auto;html=1;exitX=1;exitY=0;exitDx=0;exitDy=0;endArrow=none;endFill=0;" parent="1" source="Mugt63T2RusStyIzecl9-35" target="tuVhFSCb5TEmY5IGxSXc-4" edge="1"><mxGeometry relative="1" as="geometry"/></mxCell><mxCell id="Mugt63T2RusStyIzecl9-35" value="fld_Lacation" style="ellipse;whiteSpace=wrap;html=1;align=center;strokeColor=#FF8000;" parent="1" vertex="1"><mxGeometry x="330" y="640" width="100" height="40" as="geometry"/></mxCell><mxCell id="Mugt63T2RusStyIzecl9-64" style="edgeStyle=none;rounded=0;orthogonalLoop=1;jettySize=auto;html=1;exitX=0.5;exitY=0;exitDx=0;exitDy=0;entryX=0.5;entryY=1;entryDx=0;entryDy=0;endArrow=none;endFill=0;" parent="1" source="Mugt63T2RusStyIzecl9-58" target="tuVhFSCb5TEmY5IGxSXc-6" edge="1"><mxGeometry relative="1" as="geometry"/></mxCell><mxCell id="Mugt63T2RusStyIzecl9-58" value="&lt;u&gt;fld_EventsChronologically&lt;/u&gt;" style="ellipse;whiteSpace=wrap;html=1;align=center;strokeColor=#FF8000;fillColor=#000000;" parent="1" vertex="1"><mxGeometry x="690" y="540" width="150" height="40" as="geometry"/></mxCell><mxCell id="Mugt63T2RusStyIzecl9-65" style="edgeStyle=none;rounded=0;orthogonalLoop=1;jettySize=auto;html=1;exitX=1;exitY=0.5;exitDx=0;exitDy=0;entryX=0;entryY=0.5;entryDx=0;entryDy=0;endArrow=none;endFill=0;" parent="1" source="Mugt63T2RusStyIzecl9-59" target="tuVhFSCb5TEmY5IGxSXc-6" edge="1"><mxGeometry relative="1" as="geometry"/></mxCell><mxCell id="Mugt63T2RusStyIzecl9-59" value="Fld_StoryName&lt;br&gt;&lt;b&gt;&lt;i&gt;&lt;u&gt;FK&lt;/u&gt;&lt;/i&gt;&lt;/b&gt;" style="ellipse;whiteSpace=wrap;html=1;align=center;strokeColor=#FF8000;fillColor=#000000;" parent="1" vertex="1"><mxGeometry x="580" y="470" width="100" height="40" as="geometry"/></mxCell><mxCell id="Mugt63T2RusStyIzecl9-69" style="edgeStyle=none;rounded=0;orthogonalLoop=1;jettySize=auto;html=1;exitX=0.5;exitY=1;exitDx=0;exitDy=0;entryX=0.83;entryY=-0.075;entryDx=0;entryDy=0;entryPerimeter=0;endArrow=none;endFill=0;" parent="1" source="Mugt63T2RusStyIzecl9-60" target="tuVhFSCb5TEmY5IGxSXc-5" edge="1"><mxGeometry relative="1" as="geometry"/></mxCell><mxCell id="Mugt63T2RusStyIzecl9-60" value="fld_EventCardID&lt;br&gt;&lt;b&gt;&lt;i&gt;&lt;u&gt;FK&lt;/u&gt;&lt;/i&gt;&lt;/b&gt;" style="ellipse;whiteSpace=wrap;html=1;align=center;strokeColor=#FF8000;fillColor=#000000;" parent="1" vertex="1"><mxGeometry x="750" y="260" width="100" height="40" as="geometry"/></mxCell><mxCell id="Mugt63T2RusStyIzecl9-67" style="edgeStyle=none;rounded=0;orthogonalLoop=1;jettySize=auto;html=1;exitX=1;exitY=1;exitDx=0;exitDy=0;entryX=0.33;entryY=0.05;entryDx=0;entryDy=0;entryPerimeter=0;endArrow=none;endFill=0;" parent="1" source="Mugt63T2RusStyIzecl9-61" target="tuVhFSCb5TEmY5IGxSXc-5" edge="1"><mxGeometry relative="1" as="geometry"/></mxCell><mxCell id="Mugt63T2RusStyIzecl9-61" value="fld_Chapter" style="ellipse;whiteSpace=wrap;html=1;align=center;strokeColor=#FF8000;fillColor=#000000;" parent="1" vertex="1"><mxGeometry x="640" y="220" width="100" height="40" as="geometry"/></mxCell><mxCell id="Mugt63T2RusStyIzecl9-68" style="edgeStyle=none;rounded=0;orthogonalLoop=1;jettySize=auto;html=1;exitX=0;exitY=1;exitDx=0;exitDy=0;entryX=0.44;entryY=0.025;entryDx=0;entryDy=0;entryPerimeter=0;endArrow=none;endFill=0;" parent="1" source="Mugt63T2RusStyIzecl9-62" target="tuVhFSCb5TEmY5IGxSXc-5" edge="1"><mxGeometry relative="1" as="geometry"/></mxCell><mxCell id="Mugt63T2RusStyIzecl9-62" value="fld_Direction" style="ellipse;whiteSpace=wrap;html=1;align=center;strokeColor=#FF8000;fillColor=#000000;" parent="1" vertex="1"><mxGeometry x="740" y="210" width="100" height="40" as="geometry"/></mxCell><mxCell id="Mugt63T2RusStyIzecl9-66" style="edgeStyle=none;rounded=0;orthogonalLoop=1;jettySize=auto;html=1;exitX=1;exitY=1;exitDx=0;exitDy=0;endArrow=none;endFill=0;" parent="1" source="Mugt63T2RusStyIzecl9-63" target="tuVhFSCb5TEmY5IGxSXc-5" edge="1"><mxGeometry relative="1" as="geometry"/></mxCell><mxCell id="Mugt63T2RusStyIzecl9-63" value="&lt;u&gt;fld_StoryName&lt;/u&gt;" style="ellipse;whiteSpace=wrap;html=1;align=center;strokeColor=#FF8000;fillColor=#000000;" parent="1" vertex="1"><mxGeometry x="610" y="270" width="100" height="40" as="geometry"/></mxCell><mxCell id="Mugt63T2RusStyIzecl9-77" value="" style="edgeStyle=entityRelationEdgeStyle;fontSize=12;html=1;endArrow=ERmandOne;startArrow=none;exitX=1;exitY=0.5;exitDx=0;exitDy=0;entryX=0;entryY=0.5;entryDx=0;entryDy=0;" parent="1" source="Mugt63T2RusStyIzecl9-90" target="tuVhFSCb5TEmY5IGxSXc-8" edge="1"><mxGeometry width="100" height="100" relative="1" as="geometry"><mxPoint x="370" y="400" as="sourcePoint"/><mxPoint x="470" y="300" as="targetPoint"/></mxGeometry></mxCell><mxCell id="Mugt63T2RusStyIzecl9-78" value="" style="edgeStyle=entityRelationEdgeStyle;fontSize=12;html=1;endArrow=ERoneToMany;entryX=0;entryY=1;entryDx=0;entryDy=0;startArrow=none;" parent="1" source="Mugt63T2RusStyIzecl9-86" target="tuVhFSCb5TEmY5IGxSXc-8" edge="1"><mxGeometry width="100" height="100" relative="1" as="geometry"><mxPoint x="370" y="400" as="sourcePoint"/><mxPoint x="470" y="300" as="targetPoint"/></mxGeometry></mxCell><mxCell id="Mugt63T2RusStyIzecl9-81" value="" style="fontSize=12;html=1;endArrow=ERmandOne;startArrow=none;exitX=0.38;exitY=-0.025;exitDx=0;exitDy=0;exitPerimeter=0;entryX=0.5;entryY=1;entryDx=0;entryDy=0;" parent="1" source="Mugt63T2RusStyIzecl9-95" target="tuVhFSCb5TEmY5IGxSXc-8" edge="1"><mxGeometry width="100" height="100" relative="1" as="geometry"><mxPoint x="370" y="400" as="sourcePoint"/><mxPoint x="470" y="300" as="targetPoint"/></mxGeometry></mxCell><mxCell id="Mugt63T2RusStyIzecl9-82" value="" style="edgeStyle=entityRelationEdgeStyle;fontSize=12;html=1;endArrow=ERzeroToMany;startArrow=ERmandOne;entryX=0;entryY=0.5;entryDx=0;entryDy=0;exitX=1;exitY=0.5;exitDx=0;exitDy=0;" parent="1" source="tuVhFSCb5TEmY5IGxSXc-8" target="tuVhFSCb5TEmY5IGxSXc-5" edge="1"><mxGeometry width="100" height="100" relative="1" as="geometry"><mxPoint x="370" y="400" as="sourcePoint"/><mxPoint x="470" y="300" as="targetPoint"/></mxGeometry></mxCell><mxCell id="Mugt63T2RusStyIzecl9-84" value="" style="fontSize=12;html=1;endArrow=ERmandOne;startArrow=none;entryX=0.5;entryY=1;entryDx=0;entryDy=0;exitX=0.5;exitY=0;exitDx=0;exitDy=0;" parent="1" source="Mugt63T2RusStyIzecl9-93" target="tuVhFSCb5TEmY5IGxSXc-5" edge="1"><mxGeometry width="100" height="100" relative="1" as="geometry"><mxPoint x="750" y="450" as="sourcePoint"/><mxPoint x="740" y="390" as="targetPoint"/></mxGeometry></mxCell><mxCell id="Mugt63T2RusStyIzecl9-85" value="" style="fontSize=12;html=1;endArrow=ERzeroToMany;startArrow=none;exitX=0.42;exitY=-0.025;exitDx=0;exitDy=0;exitPerimeter=0;entryX=0.4;entryY=1.025;entryDx=0;entryDy=0;entryPerimeter=0;" parent="1" source="Mugt63T2RusStyIzecl9-88" target="tuVhFSCb5TEmY5IGxSXc-2" edge="1"><mxGeometry width="100" height="100" relative="1" as="geometry"><mxPoint x="370" y="400" as="sourcePoint"/><mxPoint x="470" y="300" as="targetPoint"/></mxGeometry></mxCell><mxCell id="Mugt63T2RusStyIzecl9-86" value="Write" style="shape=rhombus;perimeter=rhombusPerimeter;whiteSpace=wrap;html=1;align=center;strokeColor=#FFFF66;fillColor=#000000;" parent="1" vertex="1"><mxGeometry x="255" y="420" width="90" height="40" as="geometry"/></mxCell><mxCell id="Mugt63T2RusStyIzecl9-87" value="" style="edgeStyle=entityRelationEdgeStyle;fontSize=12;html=1;endArrow=none;entryX=0;entryY=1;entryDx=0;entryDy=0;" parent="1" source="tuVhFSCb5TEmY5IGxSXc-1" target="Mugt63T2RusStyIzecl9-86" edge="1"><mxGeometry width="100" height="100" relative="1" as="geometry"><mxPoint x="220" y="500" as="sourcePoint"/><mxPoint x="380" y="360" as="targetPoint"/></mxGeometry></mxCell><mxCell id="Mugt63T2RusStyIzecl9-88" value="make" style="shape=rhombus;perimeter=rhombusPerimeter;whiteSpace=wrap;html=1;align=center;strokeColor=#FFFF66;fillColor=#000000;" parent="1" vertex="1"><mxGeometry x="37" y="400" width="90" height="40" as="geometry"/></mxCell><mxCell id="Mugt63T2RusStyIzecl9-89" value="" style="fontSize=12;html=1;endArrow=none;startArrow=ERzeroToOne;exitX=1;exitY=0.5;exitDx=0;exitDy=0;entryX=0.4;entryY=1.025;entryDx=0;entryDy=0;entryPerimeter=0;" parent="1" source="6" target="Mugt63T2RusStyIzecl9-88" edge="1"><mxGeometry width="100" height="100" relative="1" as="geometry"><mxPoint x="162" y="479" as="sourcePoint"/><mxPoint x="150" y="361" as="targetPoint"/></mxGeometry></mxCell><mxCell id="Mugt63T2RusStyIzecl9-90" value="has" style="shape=rhombus;perimeter=rhombusPerimeter;whiteSpace=wrap;html=1;align=center;strokeColor=#FFFF66;fillColor=#000000;" parent="1" vertex="1"><mxGeometry x="240" y="320" width="90" height="40" as="geometry"/></mxCell><mxCell id="Mugt63T2RusStyIzecl9-91" value="" style="edgeStyle=entityRelationEdgeStyle;fontSize=12;html=1;endArrow=none;startArrow=ERmandOne;exitX=1;exitY=0.5;exitDx=0;exitDy=0;entryX=0;entryY=0.5;entryDx=0;entryDy=0;" parent="1" source="tuVhFSCb5TEmY5IGxSXc-2" target="Mugt63T2RusStyIzecl9-90" edge="1"><mxGeometry width="100" height="100" relative="1" as="geometry"><mxPoint x="210" y="340" as="sourcePoint"/><mxPoint x="380" y="340" as="targetPoint"/></mxGeometry></mxCell><mxCell id="Mugt63T2RusStyIzecl9-92" value="constitute" style="shape=rhombus;perimeter=rhombusPerimeter;whiteSpace=wrap;html=1;align=center;strokeColor=#FFFF66;fillColor=#000000;" parent="1" vertex="1"><mxGeometry x="550" y="320" width="90" height="40" as="geometry"/></mxCell><mxCell id="Mugt63T2RusStyIzecl9-93" value="has" style="shape=rhombus;perimeter=rhombusPerimeter;whiteSpace=wrap;html=1;align=center;fillColor=#000000;strokeColor=#FFFF66;" parent="1" vertex="1"><mxGeometry x="705" y="390" width="90" height="40" as="geometry"/></mxCell><mxCell id="Mugt63T2RusStyIzecl9-94" value="" style="fontSize=12;html=1;endArrow=none;startArrow=ERmandOne;entryX=0.5;entryY=1;entryDx=0;entryDy=0;exitX=0.5;exitY=0;exitDx=0;exitDy=0;" parent="1" source="tuVhFSCb5TEmY5IGxSXc-6" target="Mugt63T2RusStyIzecl9-93" edge="1"><mxGeometry width="100" height="100" relative="1" as="geometry"><mxPoint x="750" y="470" as="sourcePoint"/><mxPoint x="750" y="360" as="targetPoint"/></mxGeometry></mxCell><mxCell id="Mugt63T2RusStyIzecl9-95" value="has" style="shape=rhombus;perimeter=rhombusPerimeter;whiteSpace=wrap;html=1;align=center;fillColor=#000000;strokeColor=#FFFF66;" parent="1" vertex="1"><mxGeometry x="340" y="470" width="90" height="40" as="geometry"/></mxCell><mxCell id="Mugt63T2RusStyIzecl9-96" value="" style="fontSize=12;html=1;endArrow=none;startArrow=ERmandOne;exitX=0.38;exitY=-0.025;exitDx=0;exitDy=0;exitPerimeter=0;entryX=0.5;entryY=1;entryDx=0;entryDy=0;" parent="1" source="tuVhFSCb5TEmY5IGxSXc-4" target="Mugt63T2RusStyIzecl9-95" edge="1"><mxGeometry width="100" height="100" relative="1" as="geometry"><mxPoint x="428" y="539" as="sourcePoint"/><mxPoint x="430" y="360" as="targetPoint"/></mxGeometry></mxCell><mxCell id="Mugt63T2RusStyIzecl9-97" value="has" style="shape=rhombus;perimeter=rhombusPerimeter;whiteSpace=wrap;html=1;align=center;strokeColor=#FFFF66;fillColor=#000000;" parent="1" vertex="1"><mxGeometry x="380" y="200" width="90" height="40" as="geometry"/></mxCell><mxCell id="Mugt63T2RusStyIzecl9-98" value="" style="fontSize=12;html=1;endArrow=none;startArrow=ERmandOne;exitX=0.5;exitY=0;exitDx=0;exitDy=0;entryX=0.5;entryY=1;entryDx=0;entryDy=0;" parent="1" source="tuVhFSCb5TEmY5IGxSXc-8" target="Mugt63T2RusStyIzecl9-97" edge="1"><mxGeometry width="100" height="100" relative="1" as="geometry"><mxPoint x="430" y="320" as="sourcePoint"/><mxPoint x="425" y="150" as="targetPoint"/></mxGeometry></mxCell><mxCell id="2" value="&lt;u&gt;fld_Password&lt;br&gt;&lt;/u&gt;" style="ellipse;whiteSpace=wrap;html=1;align=center;strokeColor=#FF8000;" parent="1" vertex="1"><mxGeometry x="-241" y="526" width="100" height="40" as="geometry"/></mxCell><mxCell id="3" style="edgeStyle=none;rounded=0;orthogonalLoop=1;jettySize=auto;html=1;exitX=0.5;exitY=0;exitDx=0;exitDy=0;entryX=0.63;entryY=1.025;entryDx=0;entryDy=0;endArrow=none;endFill=0;entryPerimeter=0;" parent="1" source="2" target="6" edge="1"><mxGeometry relative="1" as="geometry"><mxPoint x="100" y="560" as="sourcePoint"/><mxPoint x="139" y="533" as="targetPoint"/></mxGeometry></mxCell><mxCell id="4" value="Fld_after this happened" style="ellipse;whiteSpace=wrap;html=1;align=center;strokeColor=#FF8000;" vertex="1" parent="1"><mxGeometry x="404" y="420" width="100" height="40" as="geometry"/></mxCell><mxCell id="5" style="edgeStyle=none;rounded=0;orthogonalLoop=1;jettySize=auto;html=1;entryX=0.6;entryY=1;entryDx=0;entryDy=0;endArrow=none;endFill=0;entryPerimeter=0;" edge="1" parent="1" source="4" target="tuVhFSCb5TEmY5IGxSXc-8"><mxGeometry relative="1" as="geometry"><mxPoint x="511.64466094067257" y="427.85786437626894" as="sourcePoint"/><mxPoint x="465" y="370" as="targetPoint"/></mxGeometry></mxCell><mxCell id="6" value="Tbl_User" style="rounded=0;whiteSpace=wrap;html=1;strokeColor=#0000FF;" vertex="1" parent="1"><mxGeometry x="-157" y="446" width="100" height="40" as="geometry"/></mxCell><mxCell id="7" value="fld_userName" style="ellipse;whiteSpace=wrap;html=1;align=center;strokeColor=#FF8000;" vertex="1" parent="1"><mxGeometry x="-296" y="380" width="100" height="40" as="geometry"/></mxCell><mxCell id="8" style="edgeStyle=none;rounded=0;orthogonalLoop=1;jettySize=auto;html=1;exitX=0.5;exitY=0;exitDx=0;exitDy=0;entryX=0.32;entryY=1;entryDx=0;entryDy=0;endArrow=none;endFill=0;entryPerimeter=0;" edge="1" parent="1" source="7" target="6"><mxGeometry relative="1" as="geometry"><mxPoint x="-111" y="530" as="sourcePoint"/><mxPoint x="-80" y="399" as="targetPoint"/></mxGeometry></mxCell><mxCell id="9" value="&lt;u&gt;fld_AuthorID&lt;/u&gt;" style="ellipse;whiteSpace=wrap;html=1;align=center;strokeColor=#FF8000;direction=south;" vertex="1" parent="1"><mxGeometry x="-141" y="571" width="101" height="61" as="geometry"/></mxCell><mxCell id="10" style="edgeStyle=none;rounded=0;orthogonalLoop=1;jettySize=auto;html=1;exitX=0;exitY=0.683;exitDx=0;exitDy=0;entryX=0.75;entryY=1;entryDx=0;entryDy=0;endArrow=none;endFill=0;exitPerimeter=0;" edge="1" parent="1" source="9" target="6"><mxGeometry relative="1" as="geometry"><mxPoint x="-111" y="530" as="sourcePoint"/><mxPoint x="-80" y="399" as="targetPoint"/></mxGeometry></mxCell></root></mxGraphModel></diagram></mxfile>